<svg width="370" height="370" viewBox="0 0 370 370" fill="none" xmlns="http://www.w3.org/2000/svg">
<path d="M370 185C370 287.173 287.173 370 185 370C82.8273 370 0 287.173 0 185C0 82.8273 82.8273 0 185 0C287.173 0 370 82.8273 370 185ZM11.1501 185C11.1501 281.015 88.9853 358.85 185 358.85C281.015 358.85 358.85 281.015 358.85 185C358.85 88.9853 281.015 11.1501 185 11.1501C88.9853 11.1501 11.1501 88.9853 11.1501 185Z" fill="#9E4949"/>
<circle cx="185" cy="185" r="176" fill="#F5F7E3"/>
<rect x="71.0001" y="165" width="229" height="68" rx="7" fill="#863333"/>
<rect x="71.0001" y="162" width="229" height="68" rx="7" fill="#717171"/>
<g clip-path="url(#clip0_5_2)">
<path d="M336.622 257.403L334.714 249.477C334.369 248.043 332.48 247.414 331.63 248.451L329.602 250.924L303.135 229.23L312.913 227.043C313.679 226.872 314.543 227.101 315.217 227.653L317.63 229.631C317.486 231.229 318.223 232.987 319.714 234.21C321.941 236.035 325.006 235.977 326.56 234.081C328.114 232.185 327.569 229.169 325.343 227.344C323.851 226.121 321.982 225.743 320.444 226.198L318.031 224.22C316.009 222.563 313.416 221.876 311.12 222.389L298.291 225.258L296.815 224.048C296.959 222.451 296.222 220.693 294.73 219.469C292.504 217.645 289.439 217.702 287.885 219.598C286.33 221.494 286.875 224.511 289.101 226.336C290.594 227.559 292.462 227.936 294 227.481L301.523 233.648L301.227 246.791C301.174 249.143 302.357 251.551 304.379 253.208L306.252 254.744C305.475 255.692 305.748 257.2 306.861 258.113L310.892 261.417C312.005 262.329 313.537 262.301 314.315 261.352L317.129 257.919C317.906 256.971 317.633 255.463 316.52 254.551L312.489 251.246C311.376 250.334 309.844 250.363 309.066 251.311L307.193 249.775C306.519 249.223 306.125 248.42 306.142 247.636L306.368 237.619L326.788 254.358L324.76 256.831C323.91 257.868 324.898 259.597 326.372 259.654L334.518 259.969C335.98 260.026 336.964 258.826 336.622 257.403Z" fill="#0F0F0F"/>
</g>
<rect x="71.0001" y="159" width="229" height="68" rx="7" fill="#863333"/>
<g clip-path="url(#clip1_5_2)">
<path fill-rule="evenodd" clip-rule="evenodd" d="M41.611 277.552L51.3104 211.728L67.452 224.34L81.0111 202.505L91.2441 210.5L77.5213 232.207L93.6628 244.819L41.611 277.552Z" fill="#0F0F0F"/>
</g>
<path d="M23.2063 164.022C23.3754 165.945 25.086 167.451 27.027 167.386C28.9679 167.321 30.4043 165.709 30.2351 163.786L23.2063 164.022ZM69.7263 113.888C71.6366 113.611 72.8753 111.843 72.4927 109.939C72.1104 108.035 70.2515 106.716 68.3412 106.993L69.7263 113.888ZM76.6163 159.918C75.4478 161.394 75.7645 163.591 77.3236 164.825C78.8827 166.059 81.0937 165.862 82.2622 164.386L76.6163 159.918ZM82.2833 164.359C83.4518 162.883 83.1351 160.686 81.576 159.452C80.0169 158.218 77.8059 158.414 76.6374 159.891L82.2833 164.359ZM76.7755 148.346C78.6887 148.085 79.9424 146.327 79.5755 144.421C79.2084 142.515 77.3597 141.182 75.4462 141.443L76.7755 148.346ZM73.4472 131.09C75.3604 130.828 76.6142 129.07 76.2469 127.164C75.8799 125.258 74.0311 123.925 72.1179 124.187L73.4472 131.09ZM58.3674 163.023C58.5523 164.945 60.2743 166.438 62.2139 166.358C64.1534 166.277 65.5758 164.653 65.3912 162.731L58.3674 163.023ZM40.8076 163.748C40.9923 165.67 42.7145 167.164 44.6539 167.083C46.5936 167.002 48.016 165.378 47.8314 163.456L40.8076 163.748ZM30.2351 163.786C29.217 152.209 32.3307 140.46 39.918 130.873L34.2722 126.405C25.6038 137.358 22.0433 150.798 23.2063 164.022L30.2351 163.786ZM39.918 130.873C47.5054 121.287 58.225 115.557 69.7263 113.888L68.3412 106.993C55.2035 108.899 42.9404 115.452 34.2722 126.405L39.918 130.873ZM82.2622 164.386L82.2833 164.359L76.6374 159.891L76.6163 159.918L82.2622 164.386ZM68.1474 153.215C70.3407 150.444 73.4447 148.802 76.7755 148.346L75.4462 141.443C70.4584 142.126 65.7884 144.594 62.5016 148.747L68.1474 153.215ZM54.0327 142.044C58.9662 135.811 65.9568 132.115 73.4472 131.09L72.1179 124.187C62.9706 125.438 54.4137 129.961 48.3869 137.576L54.0327 142.044ZM65.3912 162.731C65.0696 159.384 65.9542 155.986 68.1474 153.215L62.5016 148.747C59.2147 152.9 57.886 158.012 58.3674 163.023L65.3912 162.731ZM47.8314 163.456C47.1082 155.93 49.0994 148.278 54.0327 142.044L48.3869 137.576C42.3599 145.191 39.9245 154.558 40.8076 163.748L47.8314 163.456Z" fill="black"/>
<rect x="71.0001" y="156" width="229" height="68" rx="7" fill="#717171"/>
<path d="M127 319.759L271.116 185L299.003 214.823L154.887 349.583L127 319.759Z" fill="#0F0F0F"/>
<path d="M133.318 320.668L271.599 191.364L292.685 213.914L154.404 343.218L133.318 320.668Z" fill="#2B2727"/>
<path d="M153.983 335.503L152.603 334.027L157.307 329.629L158.687 331.104L153.983 335.503ZM162.009 330.927L160.629 329.452L161.959 328.209L160.716 326.88L162.045 325.637L160.816 324.322L162.145 323.079L160.902 321.749L162.231 320.506L161.139 319.338L159.809 320.581L158.58 319.266L157.25 320.509L156.007 319.18L154.678 320.423L153.449 319.108L152.119 320.351L150.74 318.876L152.215 317.496L153.458 318.825L154.787 317.582L156.017 318.897L157.346 317.654L158.589 318.983L159.904 317.754L161.147 319.083L162.491 317.827L163.843 319.273L162.499 320.529L163.742 321.859L162.428 323.088L163.657 324.403L162.328 325.646L163.571 326.975L162.241 328.218L163.484 329.548L162.009 330.927ZM172.293 318.71L163.51 309.317L164.985 307.937L168.701 311.911L169.869 310.818L168.626 309.488L171.431 306.866L172.674 308.195L174.018 306.938L179.086 312.358L177.596 313.751L172.651 308.463L170.138 310.813L171.368 312.127L170.053 313.357L173.768 317.33L172.293 318.71ZM181.897 309.73L180.667 308.415L179.338 309.658L175.499 305.553L176.829 304.31L175.586 302.981L179.705 299.129L180.948 300.458L182.292 299.201L183.645 300.648L182.155 302.041L180.925 300.726L177.098 304.305L178.191 305.474L180.849 302.988L182.229 304.463L179.57 306.949L180.677 308.132L184.504 304.553L183.247 303.21L184.737 301.816L186.117 303.292L184.773 304.548L186.016 305.878L181.897 309.73ZM189.127 302.969L180.343 293.576L181.819 292.196L190.602 301.589L189.127 302.969ZM192.365 299.941L183.582 290.548L185.057 289.168L193.841 298.561L192.365 299.941ZM196.648 295.936L195.418 294.622L194.089 295.865L190.25 291.76L191.58 290.517L190.337 289.187L194.456 285.335L195.699 286.665L197.043 285.408L200.882 289.513L199.538 290.77L200.767 292.084L196.648 295.936ZM195.428 294.339L199.255 290.76L195.676 286.933L191.849 290.512L195.428 294.339ZM206.802 286.441L200.492 279.692L201.967 278.312L206.912 283.6L209.425 281.251L204.48 275.963L205.94 274.597L210.885 279.885L213.413 277.522L208.468 272.234L209.929 270.868L215.01 276.302L213.695 277.531L214.925 278.846L212.105 281.482L210.876 280.168L209.707 281.26L210.937 282.575L206.802 286.441ZM218.888 275.14L217.659 273.825L216.33 275.068L212.491 270.963L213.82 269.72L212.577 268.391L216.697 264.539L217.94 265.868L219.284 264.611L223.122 268.716L221.779 269.973L223.008 271.288L218.888 275.14ZM217.668 273.542L221.496 269.963L217.917 266.136L214.09 269.715L217.668 273.542ZM226.119 268.379L221.051 262.959L222.38 261.716L221.137 260.387L225.257 256.535L226.5 257.864L227.844 256.607L229.196 258.053L227.706 259.447L226.477 258.132L222.649 261.711L227.594 266.999L226.119 268.379ZM234.393 260.642L225.61 251.249L227.085 249.869L235.868 259.262L234.393 260.642ZM238.961 256.371L237.731 255.056L236.402 256.299L232.563 252.194L233.893 250.951L232.65 249.621L236.638 245.892L234.165 243.248L235.641 241.869L243.195 249.947L241.851 251.204L243.08 252.518L238.961 256.371ZM237.741 254.773L241.568 251.194L237.989 247.367L234.162 250.946L237.741 254.773Z" fill="white"/>
<path d="M326.841 112.166L331.581 104.966L333.227 102.649L330.327 102.943L327.139 103.239L328.514 101.151L335.002 100.825L336.289 101.672L328.612 113.332L326.841 112.166ZM322.949 109.603L323.939 108.1L332.191 113.533L331.201 115.037L322.949 109.603ZM319.694 123.312C318.747 122.689 318.101 121.912 317.755 120.982C317.417 120.041 317.367 119.002 317.604 117.866C317.849 116.718 318.371 115.537 319.171 114.323C319.984 113.087 320.867 112.135 321.817 111.468C322.767 110.801 323.738 110.442 324.728 110.392C325.719 110.342 326.688 110.628 327.635 111.252C328.592 111.882 329.238 112.659 329.573 113.582C329.918 114.511 329.972 115.545 329.735 116.681C329.504 117.807 328.979 118.993 328.157 120.241C327.351 121.466 326.472 122.412 325.522 123.079C324.572 123.747 323.598 124.111 322.6 124.172C321.62 124.229 320.651 123.943 319.694 123.312ZM320.683 121.809C321.563 122.388 322.486 122.429 323.452 121.932C324.425 121.423 325.381 120.456 326.32 119.031C327.273 117.583 327.784 116.323 327.852 115.25C327.927 114.166 327.524 113.334 326.645 112.755C325.776 112.183 324.859 112.146 323.893 112.643C322.934 113.13 321.978 114.096 321.025 115.544C320.086 116.97 319.576 118.23 319.493 119.325C319.418 120.409 319.815 121.237 320.683 121.809ZM312.544 134.17C311.598 133.547 310.952 132.77 310.606 131.84C310.268 130.899 310.218 129.86 310.455 128.724C310.7 127.576 311.222 126.395 312.022 125.181C312.835 123.945 313.717 122.993 314.668 122.326C315.618 121.658 316.589 121.3 317.579 121.25C318.57 121.2 319.539 121.486 320.485 122.109C321.443 122.74 322.089 123.517 322.424 124.439C322.769 125.369 322.823 126.402 322.586 127.539C322.355 128.665 321.83 129.851 321.008 131.098C320.202 132.323 319.323 133.269 318.373 133.937C317.423 134.604 316.449 134.969 315.451 135.03C314.471 135.087 313.502 134.801 312.544 134.17ZM313.534 132.667C314.414 133.246 315.337 133.287 316.303 132.789C317.276 132.281 318.232 131.314 319.171 129.888C320.124 128.441 320.635 127.181 320.702 126.108C320.778 125.024 320.375 124.192 319.496 123.613C318.627 123.041 317.71 123.004 316.744 123.501C315.785 123.987 314.829 124.954 313.876 126.402C312.937 127.827 312.427 129.088 312.344 130.183C312.269 131.267 312.666 132.095 313.534 132.667ZM305.394 144.739L310.134 137.54L311.779 135.223L308.88 135.517L305.692 135.812L307.067 133.724L313.555 133.399L314.841 134.246L307.164 145.905L305.394 144.739ZM301.502 142.177L302.492 140.673L310.743 146.106L309.754 147.61L301.502 142.177ZM298.246 155.885C297.3 155.262 296.654 154.486 296.308 153.556C295.97 152.615 295.92 151.576 296.157 150.439C296.402 149.291 296.924 148.11 297.723 146.897C298.537 145.66 299.419 144.709 300.37 144.041C301.32 143.374 302.29 143.015 303.281 142.965C304.272 142.915 305.241 143.202 306.187 143.825C307.145 144.456 307.791 145.232 308.125 146.155C308.471 147.085 308.525 148.118 308.287 149.255C308.057 150.38 307.531 151.567 306.71 152.814C305.904 154.039 305.025 154.985 304.075 155.652C303.125 156.32 302.15 156.684 301.152 156.745C300.173 156.803 299.204 156.516 298.246 155.885ZM299.236 154.382C300.116 154.961 301.039 155.002 302.005 154.505C302.978 153.996 303.934 153.029 304.873 151.604C305.826 150.156 306.336 148.896 306.404 147.823C306.479 146.739 306.077 145.908 305.197 145.328C304.329 144.756 303.411 144.719 302.445 145.217C301.487 145.703 300.531 146.67 299.578 148.117C298.639 149.543 298.128 150.803 298.046 151.898C297.971 152.982 298.368 153.81 299.236 154.382ZM291.096 166.455L295.836 159.255L297.481 156.938L294.582 157.232L291.394 157.528L292.769 155.44L299.257 155.114L300.543 155.961L292.866 167.621L291.096 166.455ZM287.203 163.892L288.193 162.389L296.445 167.822L295.455 169.325L287.203 163.892ZM283.948 177.601C283.002 176.978 282.355 176.201 282.01 175.271C281.672 174.33 281.621 173.291 281.859 172.155C282.104 171.007 282.626 169.826 283.425 168.612C284.239 167.376 285.121 166.424 286.071 165.757C287.022 165.089 287.992 164.731 288.983 164.681C289.974 164.631 290.943 164.917 291.889 165.54C292.847 166.171 293.493 166.948 293.827 167.87C294.173 168.8 294.227 169.833 293.989 170.97C293.759 172.096 293.233 173.282 292.412 174.529C291.605 175.754 290.727 176.7 289.777 177.368C288.827 178.035 287.852 178.4 286.854 178.461C285.875 178.518 284.906 178.231 283.948 177.601ZM284.938 176.098C285.818 176.677 286.741 176.718 287.707 176.22C288.68 175.712 289.636 174.745 290.575 173.319C291.528 171.872 292.038 170.612 292.106 169.539C292.181 168.455 291.779 167.623 290.899 167.044C290.031 166.472 289.113 166.435 288.147 166.932C287.189 167.418 286.233 168.385 285.279 169.833C284.341 171.258 283.83 172.519 283.748 173.614C283.673 174.698 284.069 175.526 284.938 176.098ZM276.799 188.459C275.852 187.835 275.206 187.059 274.861 186.129C274.523 185.188 274.472 184.149 274.71 183.012C274.955 181.864 275.477 180.684 276.276 179.47C277.09 178.234 277.972 177.282 278.922 176.615C279.873 175.947 280.843 175.588 281.834 175.538C282.825 175.488 283.793 175.775 284.74 176.398C285.698 177.029 286.344 177.805 286.678 178.728C287.024 179.658 287.078 180.691 286.84 181.828C286.61 182.953 286.084 184.14 285.263 185.387C284.456 186.612 283.578 187.558 282.628 188.226C281.677 188.893 280.703 189.257 279.705 189.318C278.725 189.376 277.757 189.089 276.799 188.459ZM277.789 186.955C278.669 187.535 279.592 187.575 280.558 187.078C281.531 186.57 282.487 185.603 283.426 184.177C284.379 182.73 284.889 181.469 284.957 180.396C285.032 179.312 284.63 178.481 283.75 177.902C282.882 177.33 281.964 177.292 280.998 177.79C280.039 178.276 279.083 179.243 278.13 180.691C277.192 182.116 276.681 183.376 276.599 184.471C276.524 185.555 276.92 186.383 277.789 186.955Z" fill="#0F0F0F"/>
<rect x="71.0001" y="153" width="229" height="68" rx="7" fill="url(#paint0_linear_5_2)"/>
<path d="M109.541 196C109.013 196 108.525 195.872 108.077 195.616C107.645 195.36 107.301 195.016 107.045 194.584C106.789 194.136 106.661 193.648 106.661 193.12V192.448H108.605V193.12C108.605 193.376 108.693 193.6 108.869 193.792C109.061 193.968 109.285 194.056 109.541 194.056H121.061C121.317 194.056 121.533 193.968 121.709 193.792C121.901 193.6 121.997 193.376 121.997 193.12V189.256C121.997 189 121.901 188.784 121.709 188.608C121.533 188.432 121.317 188.344 121.061 188.344H109.541C109.013 188.344 108.525 188.216 108.077 187.96C107.645 187.688 107.301 187.336 107.045 186.904C106.789 186.472 106.661 185.992 106.661 185.464V181.6C106.661 181.072 106.789 180.592 107.045 180.16C107.301 179.712 107.645 179.36 108.077 179.104C108.525 178.848 109.013 178.72 109.541 178.72H121.061C121.589 178.72 122.069 178.848 122.501 179.104C122.949 179.36 123.301 179.712 123.557 180.16C123.813 180.592 123.941 181.072 123.941 181.6V182.272H121.997V181.6C121.997 181.344 121.901 181.128 121.709 180.952C121.533 180.76 121.317 180.664 121.061 180.664H109.541C109.285 180.664 109.061 180.76 108.869 180.952C108.693 181.128 108.605 181.344 108.605 181.6V185.464C108.605 185.72 108.693 185.936 108.869 186.112C109.061 186.288 109.285 186.376 109.541 186.376H121.061C121.589 186.376 122.069 186.512 122.501 186.784C122.949 187.04 123.301 187.384 123.557 187.816C123.813 188.248 123.941 188.728 123.941 189.256V193.12C123.941 193.648 123.813 194.136 123.557 194.584C123.301 195.016 122.949 195.36 122.501 195.616C122.069 195.872 121.589 196 121.061 196H109.541ZM131.484 196L126.012 182.08H128.124L132.348 192.448L136.836 182.08H139.428L144.204 192.424L148.14 182.08H150.276L145.02 196H143.316L138.132 184.504L133.212 196H131.484ZM152.131 196V182.08H154.099V196H152.131ZM152.131 179.488V177.52H154.099V179.488H152.131ZM160.051 196C159.507 196 159.011 195.872 158.563 195.616C158.131 195.344 157.787 194.992 157.531 194.56C157.275 194.112 157.147 193.624 157.147 193.096V177.52H159.115V182.08H165.139V184.048H159.115V193.096C159.115 193.352 159.203 193.576 159.379 193.768C159.571 193.944 159.795 194.032 160.051 194.032H165.139V196H160.051ZM167.132 196V193.312L179.156 184.048H167.132V182.08H181.316V184.768L169.292 194.032H181.316V196H167.132ZM186.112 196C185.584 196 185.096 195.872 184.648 195.616C184.216 195.344 183.864 194.992 183.592 194.56C183.336 194.112 183.208 193.624 183.208 193.096V184.984C183.208 184.456 183.336 183.976 183.592 183.544C183.864 183.096 184.216 182.744 184.648 182.488C185.096 182.216 185.584 182.08 186.112 182.08H194.464C195.008 182.08 195.496 182.216 195.928 182.488C196.376 182.744 196.728 183.096 196.984 183.544C197.256 183.976 197.392 184.456 197.392 184.984V190.024H185.176V193.096C185.176 193.352 185.264 193.576 185.44 193.768C185.632 193.944 185.856 194.032 186.112 194.032H197.392V196H186.112ZM185.176 188.056H195.4V184.984C195.4 184.728 195.304 184.512 195.112 184.336C194.936 184.144 194.72 184.048 194.464 184.048H186.112C185.856 184.048 185.632 184.144 185.44 184.336C185.264 184.512 185.176 184.728 185.176 184.984V188.056ZM199.732 196V184.984C199.732 184.456 199.86 183.976 200.116 183.544C200.388 183.096 200.74 182.744 201.172 182.488C201.62 182.216 202.108 182.08 202.636 182.08H210.46V184.048H202.636C202.38 184.048 202.156 184.144 201.964 184.336C201.788 184.512 201.7 184.728 201.7 184.984V196H199.732ZM218.926 196V180.664H211.246V178.72H228.526V180.664H220.87V196H218.926ZM230.151 196C229.623 196 229.135 195.872 228.687 195.616C228.255 195.344 227.903 194.992 227.631 194.56C227.375 194.112 227.247 193.624 227.247 193.096V184.984C227.247 184.456 227.375 183.976 227.631 183.544C227.903 183.096 228.255 182.744 228.687 182.488C229.135 182.216 229.623 182.08 230.151 182.08H238.503C239.047 182.08 239.535 182.216 239.967 182.488C240.415 182.744 240.767 183.096 241.023 183.544C241.295 183.976 241.431 184.456 241.431 184.984V193.096C241.431 193.624 241.295 194.112 241.023 194.56C240.767 194.992 240.415 195.344 239.967 195.616C239.535 195.872 239.047 196 238.503 196H230.151ZM230.151 194.032H238.503C238.759 194.032 238.975 193.944 239.151 193.768C239.343 193.576 239.439 193.352 239.439 193.096V184.984C239.439 184.728 239.343 184.512 239.151 184.336C238.975 184.144 238.759 184.048 238.503 184.048H230.151C229.895 184.048 229.671 184.144 229.479 184.336C229.303 184.512 229.215 184.728 229.215 184.984V193.096C229.215 193.352 229.303 193.576 229.479 193.768C229.671 193.944 229.895 194.032 230.151 194.032ZM246.3 196C245.772 196 245.284 195.872 244.836 195.616C244.404 195.344 244.052 194.992 243.78 194.56C243.524 194.112 243.396 193.624 243.396 193.096V184.984C243.396 184.456 243.524 183.976 243.78 183.544C244.052 183.096 244.404 182.744 244.836 182.488C245.284 182.216 245.772 182.08 246.3 182.08H254.652C255.196 182.08 255.684 182.216 256.116 182.488C256.564 182.744 256.916 183.096 257.172 183.544C257.444 183.976 257.58 184.456 257.58 184.984V193.096C257.58 193.624 257.444 194.112 257.172 194.56C256.916 194.992 256.564 195.344 256.116 195.616C255.684 195.872 255.196 196 254.652 196H246.3ZM246.3 194.032H254.652C254.908 194.032 255.124 193.944 255.3 193.768C255.492 193.576 255.588 193.352 255.588 193.096V184.984C255.588 184.728 255.492 184.512 255.3 184.336C255.124 184.144 254.908 184.048 254.652 184.048H246.3C246.044 184.048 245.82 184.144 245.628 184.336C245.452 184.512 245.364 184.728 245.364 184.984V193.096C245.364 193.352 245.452 193.576 245.628 193.768C245.82 193.944 246.044 194.032 246.3 194.032ZM262.472 196C261.944 196 261.456 195.872 261.008 195.616C260.576 195.344 260.224 194.992 259.952 194.56C259.696 194.112 259.568 193.624 259.568 193.096V177.52H261.536V193.096C261.536 193.352 261.624 193.576 261.8 193.768C261.992 193.944 262.216 194.032 262.472 194.032H264.824V196H262.472Z" fill="black"/>
<rect x="72.0001" y="154" width="227" height="66" rx="6" stroke="#222020" stroke-width="2"/>
<defs>
<linearGradient id="paint0_linear_5_2" x1="75.0001" y1="215" x2="297" y2="159.5" gradientUnits="userSpaceOnUse">
<stop stop-color="#9E4949"/>
<stop offset="1" stop-color="#7D2222"/>
</linearGradient>
<clipPath id="clip0_5_2">
<rect width="53.2687" height="62.5467" fill="white" transform="translate(353.142 238.651) rotate(129.342)"/>
</clipPath>
<clipPath id="clip1_5_2">
<rect width="60.4876" height="67.0966" fill="white" transform="translate(101.186 267.084) rotate(170.035)"/>
</clipPath>
</defs>
</svg>
